<svg width="107" height="24" viewBox="0 0 107 24" fill="none" xmlns="http://www.w3.org/2000/svg">
<path d="M17.1442 15.47C17.1442 16.51 16.9842 17.51 16.6642 18.47C16.3442 19.43 15.8742 20.28 15.2542 21.02C14.6542 21.74 13.9142 22.32 13.0342 22.76C12.1542 23.2 11.1542 23.42 10.0342 23.42C9.03422 23.42 8.08422 23.22 7.18422 22.82C6.30422 22.4 5.62422 21.81 5.14422 21.05H5.08422V23H0.554219V0.319999H5.47422V9.65H5.53422C5.95422 9.15 6.54422 8.69 7.30422 8.27C8.06422 7.85 8.99422 7.64 10.0942 7.64C11.1742 7.64 12.1442 7.85 13.0042 8.27C13.8842 8.69 14.6242 9.26 15.2242 9.98C15.8442 10.7 16.3142 11.54 16.6342 12.5C16.9742 13.44 17.1442 14.43 17.1442 15.47ZM12.4042 15.47C12.4042 14.99 12.3242 14.52 12.1642 14.06C12.0242 13.6 11.8042 13.2 11.5042 12.86C11.2042 12.5 10.8342 12.21 10.3942 11.99C9.95422 11.77 9.44422 11.66 8.86422 11.66C8.30422 11.66 7.80422 11.77 7.36422 11.99C6.92422 12.21 6.54422 12.5 6.22422 12.86C5.92422 13.22 5.68422 13.63 5.50422 14.09C5.34422 14.55 5.26422 15.02 5.26422 15.5C5.26422 15.98 5.34422 16.45 5.50422 16.91C5.68422 17.37 5.92422 17.78 6.22422 18.14C6.54422 18.5 6.92422 18.79 7.36422 19.01C7.80422 19.23 8.30422 19.34 8.86422 19.34C9.44422 19.34 9.95422 19.23 10.3942 19.01C10.8342 18.79 11.2042 18.5 11.5042 18.14C11.8042 17.78 12.0242 17.37 12.1642 16.91C12.3242 16.43 12.4042 15.95 12.4042 15.47ZM30.1096 23V20.93H30.0496C29.8696 21.27 29.6296 21.59 29.3296 21.89C29.0496 22.19 28.7096 22.45 28.3096 22.67C27.9296 22.89 27.4996 23.07 27.0196 23.21C26.5596 23.35 26.0696 23.42 25.5496 23.42C24.5496 23.42 23.6996 23.24 22.9996 22.88C22.3196 22.52 21.7596 22.06 21.3196 21.5C20.8996 20.92 20.5896 20.27 20.3896 19.55C20.2096 18.81 20.1196 18.06 20.1196 17.3V8.06H25.0696V16.16C25.0696 16.58 25.0996 16.98 25.1596 17.36C25.2196 17.74 25.3296 18.08 25.4896 18.38C25.6696 18.68 25.8996 18.92 26.1796 19.1C26.4596 19.26 26.8296 19.34 27.2896 19.34C28.1496 19.34 28.7996 19.02 29.2396 18.38C29.6996 17.74 29.9296 16.99 29.9296 16.13V8.06H34.8496V23H30.1096ZM55.3473 15.47C55.3473 16.51 55.1873 17.51 54.8673 18.47C54.5473 19.43 54.0773 20.28 53.4573 21.02C52.8573 21.74 52.1173 22.32 51.2373 22.76C50.3573 23.2 49.3573 23.42 48.2373 23.42C47.2373 23.42 46.2873 23.22 45.3873 22.82C44.5073 22.4 43.8273 21.81 43.3473 21.05H43.2873V23H38.7573V0.319999H43.6773V9.65H43.7373C44.1573 9.15 44.7473 8.69 45.5073 8.27C46.2673 7.85 47.1973 7.64 48.2973 7.64C49.3773 7.64 50.3473 7.85 51.2073 8.27C52.0873 8.69 52.8273 9.26 53.4273 9.98C54.0473 10.7 54.5173 11.54 54.8373 12.5C55.1773 13.44 55.3473 14.43 55.3473 15.47ZM50.6073 15.47C50.6073 14.99 50.5273 14.52 50.3673 14.06C50.2273 13.6 50.0073 13.2 49.7073 12.86C49.4073 12.5 49.0373 12.21 48.5973 11.99C48.1573 11.77 47.6473 11.66 47.0673 11.66C46.5073 11.66 46.0073 11.77 45.5673 11.99C45.1273 12.21 44.7473 12.5 44.4273 12.86C44.1273 13.22 43.8873 13.63 43.7073 14.09C43.5473 14.55 43.4673 15.02 43.4673 15.5C43.4673 15.98 43.5473 16.45 43.7073 16.91C43.8873 17.37 44.1273 17.78 44.4273 18.14C44.7473 18.5 45.1273 18.79 45.5673 19.01C46.0073 19.23 46.5073 19.34 47.0673 19.34C47.6473 19.34 48.1573 19.23 48.5973 19.01C49.0373 18.79 49.4073 18.5 49.7073 18.14C50.0073 17.78 50.2273 17.37 50.3673 16.91C50.5273 16.43 50.6073 15.95 50.6073 15.47ZM75.1227 15.47C75.1227 16.51 74.9627 17.51 74.6427 18.47C74.3227 19.43 73.8527 20.28 73.2327 21.02C72.6327 21.74 71.8927 22.32 71.0127 22.76C70.1327 23.2 69.1327 23.42 68.0127 23.42C67.0127 23.42 66.0627 23.22 65.1627 22.82C64.2827 22.4 63.6027 21.81 63.1227 21.05H63.0627V23H58.5327V0.319999H63.4527V9.65H63.5127C63.9327 9.15 64.5227 8.69 65.2827 8.27C66.0427 7.85 66.9727 7.64 68.0727 7.64C69.1527 7.64 70.1227 7.85 70.9827 8.27C71.8627 8.69 72.6027 9.26 73.2027 9.98C73.8227 10.7 74.2927 11.54 74.6127 12.5C74.9527 13.44 75.1227 14.43 75.1227 15.47ZM70.3827 15.47C70.3827 14.99 70.3027 14.52 70.1427 14.06C70.0027 13.6 69.7827 13.2 69.4827 12.86C69.1827 12.5 68.8127 12.21 68.3727 11.99C67.9327 11.77 67.4227 11.66 66.8427 11.66C66.2827 11.66 65.7827 11.77 65.3427 11.99C64.9027 12.21 64.5227 12.5 64.2027 12.86C63.9027 13.22 63.6627 13.63 63.4827 14.09C63.3227 14.55 63.2427 15.02 63.2427 15.5C63.2427 15.98 63.3227 16.45 63.4827 16.91C63.6627 17.37 63.9027 17.78 64.2027 18.14C64.5227 18.5 64.9027 18.79 65.3427 19.01C65.7827 19.23 66.2827 19.34 66.8427 19.34C67.4227 19.34 67.9327 19.23 68.3727 19.01C68.8127 18.79 69.1827 18.5 69.4827 18.14C69.7827 17.78 70.0027 17.37 70.1427 16.91C70.3027 16.43 70.3827 15.95 70.3827 15.47ZM78.3081 23V0.319999H83.2881V23H78.3081ZM93.8037 15.92C93.8037 16.4133 93.7103 16.8733 93.5237 17.3C93.337 17.7267 93.0837 18.1 92.7637 18.42C92.4437 18.74 92.0703 18.9933 91.6437 19.18C91.217 19.3667 90.757 19.46 90.2637 19.46C89.7703 19.46 89.3103 19.3667 88.8837 19.18C88.457 18.9933 88.0837 18.74 87.7637 18.42C87.4437 18.1 87.1903 17.7267 87.0037 17.3C86.817 16.8733 86.7237 16.4133 86.7237 15.92C86.7237 15.4267 86.817 14.9667 87.0037 14.54C87.1903 14.1133 87.4437 13.74 87.7637 13.42C88.0837 13.1 88.457 12.8467 88.8837 12.66C89.3103 12.4733 89.7703 12.38 90.2637 12.38C90.757 12.38 91.217 12.4733 91.6437 12.66C92.0703 12.8467 92.4437 13.1 92.7637 13.42C93.0837 13.74 93.337 14.1133 93.5237 14.54C93.7103 14.9667 93.8037 15.4267 93.8037 15.92ZM102.524 11.75V17.45C102.524 18.15 102.654 18.68 102.914 19.04C103.194 19.38 103.684 19.55 104.384 19.55C104.624 19.55 104.874 19.53 105.134 19.49C105.414 19.45 105.644 19.39 105.824 19.31L105.884 22.91C105.544 23.03 105.114 23.13 104.594 23.21C104.074 23.31 103.554 23.36 103.034 23.36C102.034 23.36 101.194 23.24 100.514 23C99.8337 22.74 99.2837 22.38 98.8637 21.92C98.4637 21.44 98.1737 20.88 97.9937 20.24C97.8137 19.58 97.7237 18.85 97.7237 18.05V11.75H95.3237V8.06H97.6937V4.13H102.524V8.06H106.034V11.75H102.524Z" fill="black"/>
</svg>
